<?xml version="1.0" encoding="UTF-8" standalone="no"?>
<svg
   xmlns:dc="http://purl.org/dc/elements/1.1/"
   xmlns:cc="http://creativecommons.org/ns#"
   xmlns:rdf="http://www.w3.org/1999/02/22-rdf-syntax-ns#"
   xmlns:svg="http://www.w3.org/2000/svg"
   xmlns="http://www.w3.org/2000/svg"
   viewBox="0 0 2666.6667 1733.6267"
   height="1733.6267"
   width="2666.6667"
   xml:space="preserve"
   id="svg2"
   version="1.1"><metadata
     id="metadata8"><rdf:RDF><cc:Work
         rdf:about=""><dc:format>image/svg+xml</dc:format><dc:type
           rdf:resource="http://purl.org/dc/dcmitype/StillImage" /></cc:Work></rdf:RDF></metadata><defs
     id="defs6"><clipPath
       id="clipPath22"
       clipPathUnits="userSpaceOnUse"><path
         id="path20"
         d="M 0,1300.215 H 2000 V 0 H 0 Z" /></clipPath></defs><g
     transform="matrix(1.3333333,0,0,-1.3333333,0,1733.6267)"
     id="g10"><g
       transform="translate(1237.5889,851.1927)"
       id="g12"><path
         id="path14"
         style="fill:#1d1d1b;fill-opacity:1;fill-rule:nonzero;stroke:none"
         d="m 0,0 -0.802,-0.246 v -374.472 l -90.245,-26.258 V 150.45 L -255.558,100 l -0.801,-0.246 v -474.472 l -90.223,-26.258 v 651.427 l -165.336,-50.696 v -574.473 l -90.222,-26.258 v 551.019 h -37.546 v -602.662 l 165.314,50.626 V 172.48 l 90.245,26.326 v -651.425 l 165.312,50.626 V 72.748 l 90.223,25.474 v -550.841 l 165.336,50.626 v 375.054 l 90.223,24.532 v -399.882 h 37.545 V 50.45 Z" /></g><g
       id="g16"><g
         clip-path="url(#clipPath22)"
         id="g18"><g
           transform="translate(323.4921,282.994)"
           id="g24"><path
             id="path26"
             style="fill:#1d1d1b;fill-opacity:1;fill-rule:nonzero;stroke:none"
             d="m 0,0 -14.6,-16.857 c -6.623,9.933 -15.051,14.599 -27.694,14.599 -10.686,0 -16.256,-4.214 -16.256,-9.933 0,-5.118 5.419,-7.828 19.567,-10.386 27.544,-4.967 38.23,-13.847 38.23,-31.307 0,-19.416 -18.061,-30.554 -41.993,-30.554 -23.48,0 -35.821,6.021 -45.605,16.858 l 13.245,18.061 c 8.127,-11.288 17.76,-14.75 31.005,-14.75 11.139,0 16.557,3.311 16.557,9.031 0,4.666 -5.72,7.224 -19.266,9.783 -23.48,4.666 -38.681,11.59 -38.681,31.006 0,18.663 15.503,32.36 42.745,32.36 C -24.082,17.911 -11.439,12.793 0,0" /></g><g
           transform="translate(422.3818,279.3817)"
           id="g28"><path
             id="path30"
             style="fill:#1d1d1b;fill-opacity:1;fill-rule:nonzero;stroke:none"
             d="M 0,0 H -32.359 V -79.32 H -58.248 V 0 h -32.511 v 20.018 h 58.4 H 0 Z" /></g><g
           transform="translate(477.9257,240.0975)"
           id="g32"><path
             id="path34"
             style="fill:#1d1d1b;fill-opacity:1;fill-rule:nonzero;stroke:none"
             d="m 0,0 -7.225,23.781 -4.365,15.654 h -0.301 L -15.954,23.932 -23.48,0 Z m 5.418,-17.61 h -34.316 l -6.924,-22.426 H -61.86 l 34.918,99.338 H 4.063 L 38.832,-40.036 H 12.191 Z" /></g><g
           transform="translate(616.3994,200.0614)"
           id="g36"><path
             id="path38"
             style="fill:#1d1d1b;fill-opacity:1;fill-rule:nonzero;stroke:none"
             d="m 0,0 h -28.747 l -30.856,53.733 -7.525,15.051 h -0.15 l 0.601,-18.663 V 0 h -22.878 v 99.338 h 28.748 l 30.856,-53.733 7.525,-15.051 h 0.151 l -0.602,18.664 v 50.12 H 0 Z" /></g><g
           transform="translate(699.6718,249.7303)"
           id="g40"><path
             id="path42"
             style="fill:#1d1d1b;fill-opacity:1;fill-rule:nonzero;stroke:none"
             d="m 0,0 c 0,19.868 -7.375,30.103 -24.232,30.103 h -13.697 v -60.206 h 13.697 C -7.375,-30.103 0,-19.867 0,0 m 26.49,0 c 0,-31.758 -17.008,-49.669 -48.164,-49.669 h -24.533 -17.61 v 99.338 h 25.888 16.255 C 9.482,49.669 26.49,31.758 26.49,0" /></g><g
           transform="translate(789.7519,240.0975)"
           id="g44"><path
             id="path46"
             style="fill:#1d1d1b;fill-opacity:1;fill-rule:nonzero;stroke:none"
             d="m 0,0 -7.225,23.781 -4.365,15.654 h -0.301 L -15.954,23.932 -23.48,0 Z m 5.418,-17.61 h -34.316 l -6.924,-22.426 H -61.86 l 34.918,99.338 H 4.063 L 38.832,-40.036 H 12.191 Z" /></g><g
           transform="translate(864.4882,254.6976)"
           id="g48"><path
             id="path50"
             style="fill:#1d1d1b;fill-opacity:1;fill-rule:nonzero;stroke:none"
             d="m 0,0 h 17.61 c 10.988,0 15.804,3.763 15.804,12.643 0,8.73 -4.816,12.492 -15.804,12.492 H 0 Z M 15.503,-18.363 H 0 V -54.636 H -25.437 V 44.702 H 0 21.975 c 23.931,0 37.478,-11.138 37.478,-31.608 0,-14.449 -6.773,-24.232 -19.416,-28.747 L 65.322,-54.636 H 36.726 Z" /></g><g
           transform="translate(1005.8232,249.7303)"
           id="g52"><path
             id="path54"
             style="fill:#1d1d1b;fill-opacity:1;fill-rule:nonzero;stroke:none"
             d="m 0,0 c 0,19.868 -7.375,30.103 -24.232,30.103 h -13.697 v -60.206 h 13.697 C -7.375,-30.103 0,-19.867 0,0 m 26.49,0 c 0,-31.758 -17.008,-49.669 -48.164,-49.669 h -24.533 -17.61 v 99.338 h 25.888 16.255 C 9.482,49.669 26.49,31.758 26.49,0" /></g><g
           transform="translate(1138.6943,198.5565)"
           id="g56"><path
             id="path58"
             style="fill:#1d1d1b;fill-opacity:1;fill-rule:nonzero;stroke:none"
             d="m 0,0 c -28.747,0 -46.809,19.566 -46.809,51.174 0,31.608 18.212,51.175 46.659,51.175 19.717,0 33.714,-8.279 39.735,-24.384 L 24.384,71.192 c -3.913,11.74 -11.289,17.159 -23.631,17.159 -18.513,0 -30.704,-13.546 -30.704,-37.177 0,-23.48 11.288,-37.176 30.102,-37.176 12.643,0 21.825,6.321 25.587,18.964 L 41.091,27.845 C 34.92,9.633 19.417,0 0,0" /></g><g
           transform="translate(1247.0674,239.1947)"
           id="g60"><path
             id="path62"
             style="fill:#1d1d1b;fill-opacity:1;fill-rule:nonzero;stroke:none"
             d="m 0,0 -11.439,31.909 -4.515,14.299 h -0.452 L -20.62,32.209 -32.36,0 Z m 4.816,-13.095 h -41.842 l -9.483,-26.038 h -16.555 l 37.477,99.338 H -6.321 L 31.156,-39.133 H 14.148 Z" /></g><g
           transform="translate(1389.9072,200.0614)"
           id="g64"><path
             id="path66"
             style="fill:#1d1d1b;fill-opacity:1;fill-rule:nonzero;stroke:none"
             d="m 0,0 h -14.751 v 57.496 l 1.054,27.393 h -0.151 L -44.101,0 h -13.395 l -30.253,84.889 h -0.15 l 1.204,-27.393 V 0 h -14.902 v 99.338 h 23.932 l 20.019,-57.495 6.923,-23.631 h 0.301 l 7.074,23.631 19.868,57.495 H 0 Z" /></g><g
           transform="translate(1481.7227,213.9086)"
           id="g68"><path
             id="path70"
             style="fill:#1d1d1b;fill-opacity:1;fill-rule:nonzero;stroke:none"
             d="m 0,0 v -13.847 h -65.925 -8.128 v 99.338 h 16.106 55.84 V 71.644 h -55.84 V 43.046 h 43.648 V 29.5 H -57.947 V 0 Z" /></g><g
           transform="translate(1512.5625,253.1923)"
           id="g72"><path
             id="path74"
             style="fill:#1d1d1b;fill-opacity:1;fill-rule:nonzero;stroke:none"
             d="m 0,0 h 23.18 c 13.094,0 19.416,5.268 19.416,16.255 0,10.988 -6.322,16.256 -19.416,16.256 L 0,32.511 Z M 21.373,-13.396 H 0 V -53.131 H -15.954 V 46.208 H 0 24.534 c 21.373,0 34.769,-11.139 34.769,-29.802 0,-14.299 -7.827,-24.082 -21.073,-27.995 L 65.173,-53.131 H 46.659 Z" /></g><g
           transform="translate(1645.9375,239.1947)"
           id="g76"><path
             id="path78"
             style="fill:#1d1d1b;fill-opacity:1;fill-rule:nonzero;stroke:none"
             d="m 0,0 -11.439,31.909 -4.515,14.299 h -0.452 L -20.62,32.209 -32.36,0 Z m 4.816,-13.095 h -41.842 l -9.483,-26.038 h -16.556 l 37.478,99.338 H -6.321 L 31.156,-39.133 H 14.148 Z" /></g><g
           transform="translate(1764.4102,280.7362)"
           id="g80"><path
             id="path82"
             style="fill:#1d1d1b;fill-opacity:1;fill-rule:nonzero;stroke:none"
             d="m 0,0 -12.191,-10.987 c -5.569,11.89 -13.246,17.158 -27.393,17.158 -14.148,0 -21.825,-6.321 -21.825,-14.75 0,-7.978 6.171,-12.192 25.436,-15.653 26.642,-4.666 36.425,-12.945 36.425,-28.899 0,-17.761 -16.105,-29.049 -39.585,-29.049 -21.674,0 -35.069,7.826 -42.746,20.169 l 11.289,11.288 c 6.472,-12.041 16.405,-17.459 31.307,-17.459 14.148,0 22.878,4.967 22.878,14.148 0,7.074 -6.021,11.138 -24.685,14.599 -27.242,5.118 -37.327,13.396 -37.327,29.2 0,16.858 14.449,30.404 38.682,30.404 C -21.372,20.169 -8.729,13.546 0,0" /></g></g></g></g></svg>